<svg xmlns="http://www.w3.org/2000/svg" viewBox="0 0 64 64" role="img" aria-label="WeChat">
  <circle cx="32" cy="32" r="30" fill="#07C160"/>
  <path fill="#fff" d="M27.4 18.5c-9 0-16.2 5.9-16.2 13.1 0 4.1 2.4 7.8 6.1 10.2l-1.4 4.2 5.1-2.5c2 .7 4.2 1.2 6.4 1.2 1 0 1.9-.1 2.8-.2a11.8 11.8 0 0 1-.7-4c0-7 6.8-12.6 15.2-12.6h.2c-1.9-5.4-8.8-9.4-17.5-9.4Zm-5.6 7.3a2 2 0 1 1 0 4.1 2 2 0 0 1 0-4.1Zm11.2 0a2 2 0 1 1 0 4.1 2 2 0 0 1 0-4.1Z"/>
  <path fill="#fff" d="M46.1 30.7c-7.5 0-13.6 4.9-13.6 11 0 6 6.1 11 13.6 11 1.8 0 3.5-.3 5-.8l4.1 2-1.1-3.5c3.3-2 5.5-5.1 5.5-8.7 0-6.1-6.1-11-13.5-11Zm-4.6 6.2a1.7 1.7 0 1 1 0 3.4 1.7 1.7 0 0 1 0-3.4Zm9.2 0a1.7 1.7 0 1 1 0 3.4 1.7 1.7 0 0 1 0-3.4Z"/>
</svg>
