<svg xmlns="http://www.w3.org/2000/svg" viewBox="0 0 64 64" role="img" aria-label="WhatsApp">
  <circle cx="32" cy="32" r="30" fill="#25D366"/>
  <path fill="#fff" d="M44.5 19.3A17.2 17.2 0 0 0 17.4 40l-2.2 8 8.2-2.1a17.2 17.2 0 0 0 8.2 2.1h.1a17.2 17.2 0 0 0 12.8-28.7ZM31.7 45a14.2 14.2 0 0 1-7.2-2l-.5-.3-4.8 1.3 1.3-4.7-.3-.5a14.2 14.2 0 1 1 11.5 6.2Zm7.8-10.6c-.4-.2-2.5-1.2-2.9-1.4-.4-.1-.7-.2-1 .2-.3.4-1.1 1.4-1.4 1.7-.3.3-.5.3-.9.1-.4-.2-1.8-.7-3.4-2.1-1.3-1.1-2.1-2.5-2.4-2.9-.3-.4 0-.7.2-.9.2-.2.4-.5.7-.8.2-.3.3-.4.5-.7.2-.3.1-.5 0-.8-.1-.2-1-2.4-1.4-3.3-.4-.9-.7-.8-1-.8h-.9c-.3 0-.8.1-1.2.6-.4.4-1.6 1.5-1.6 3.8s1.6 4.4 1.9 4.7c.2.3 3.2 4.9 7.8 6.9 1.1.5 1.9.8 2.6 1 .1 0 .2.1.3.1 1.1.3 2.1.3 2.9.2.9-.1 2.5-1 2.9-2 .4-1 .4-1.9.3-2.1-.2-.3-.5-.4-.9-.6Z"/>
</svg>
